<svg width="538" height="195" viewBox="0 0 538 195" fill="none" xmlns="http://www.w3.org/2000/svg">
<path d="M33.0574 121.975L36.3247 100.269H100.902L104.169 121.975H33.0574ZM68.229 61.6597L48.0486 107.953L48.6252 114.099L30.9433 152.517H0L68.229 10.1806L136.458 152.517H105.323L88.025 115.252L88.4094 108.337L68.229 61.6597Z" fill="white"/>
<path d="M147.593 29.9655C147.593 25.8676 149.067 22.5381 152.014 19.977C154.961 17.2878 158.484 15.9432 162.584 15.9432C166.685 15.9432 170.144 17.2878 172.963 19.977C175.91 22.5381 177.383 25.8676 177.383 29.9655C177.383 33.9353 175.91 37.2648 172.963 39.954C170.144 42.6432 166.685 43.9878 162.584 43.9878C158.484 43.9878 154.961 42.6432 152.014 39.954C149.067 37.2648 147.593 33.9353 147.593 29.9655ZM150.284 64.1569H174.5V152.517H150.284V64.1569Z" fill="white"/>
<path d="M225.333 64.1569V152.517H200.924V64.1569H225.333ZM251.279 90.0885C249.613 88.5519 247.884 87.3993 246.09 86.631C244.424 85.7346 242.31 85.2864 239.747 85.2864C236.672 85.2864 234.046 86.1188 231.867 87.7835C229.689 89.4483 228.024 91.8173 226.87 94.8907C225.845 97.836 225.333 101.422 225.333 105.648L218.414 98.7324C218.414 91.6893 219.759 85.4785 222.45 80.1C225.141 74.5936 228.664 70.2396 233.021 67.0382C237.377 63.7087 241.862 62.0439 246.474 62.0439C249.677 62.0439 252.689 62.6202 255.507 63.7727C258.454 64.9252 260.825 66.654 262.619 68.959L251.279 90.0885Z" fill="white"/>
<path d="M268.317 64.1569H323.669V85.0943H268.317V64.1569ZM320.978 27.6604C319.697 25.7396 318.223 24.459 316.558 23.8187C315.02 23.0504 313.483 22.6662 311.945 22.6662C310.023 22.6662 308.357 23.1784 306.948 24.2029C305.667 25.0993 304.642 26.636 303.873 28.813C303.104 30.9899 302.72 33.7432 302.72 37.0727V152.517H278.695V31.5022C278.695 24.7151 279.848 19.0166 282.155 14.4065C284.461 9.7964 287.921 6.27482 292.533 3.84172C297.146 1.28058 302.784 0 309.446 0C313.418 0 316.814 0.512231 319.633 1.53669C322.452 2.43309 324.822 3.58561 326.744 4.99425C328.794 6.40288 330.396 7.74749 331.549 9.02806L320.978 27.6604Z" fill="white"/>
<path d="M338.501 2.68921H363.486V152.517H338.501V2.68921Z" fill="white"/>
<path d="M386.898 29.9655C386.898 25.8676 388.371 22.5381 391.318 19.977C394.265 17.2878 397.789 15.9432 401.889 15.9432C405.989 15.9432 409.449 17.2878 412.267 19.977C415.214 22.5381 416.688 25.8676 416.688 29.9655C416.688 33.9353 415.214 37.2648 412.267 39.954C409.449 42.6432 405.989 43.9878 401.889 43.9878C397.789 43.9878 394.265 42.6432 391.318 39.954C388.371 37.2648 386.898 33.9353 386.898 29.9655ZM389.588 64.1569H413.805V152.517H389.588V64.1569Z" fill="white"/>
<path d="M464.637 194.776H439.652V64.1569H464.637V194.776ZM537.287 108.337C537.287 118.325 535.301 126.841 531.329 133.884C527.357 140.927 522.103 146.242 515.569 149.827C509.162 153.413 502.243 155.206 494.812 155.206C487.252 155.206 480.654 153.285 475.016 149.443C469.506 145.602 465.214 140.159 462.139 133.116C459.192 126.073 457.718 117.813 457.718 108.337C457.718 98.7324 459.192 90.4727 462.139 83.5576C465.214 76.5144 469.506 71.072 475.016 67.2302C480.654 63.3885 487.252 61.4677 494.812 61.4677C502.243 61.4677 509.162 63.2605 515.569 66.8461C522.103 70.4317 527.357 75.7461 531.329 82.7893C535.301 89.7044 537.287 98.2202 537.287 108.337ZM511.533 108.337C511.533 103.086 510.444 98.6044 508.265 94.8907C506.087 91.177 503.14 88.3598 499.424 86.4389C495.837 84.518 491.865 83.5576 487.508 83.5576C483.793 83.5576 480.141 84.518 476.553 86.4389C473.094 88.2317 470.211 90.9849 467.905 94.6986C465.726 98.4123 464.637 102.958 464.637 108.337C464.637 113.715 465.726 118.261 467.905 121.975C470.211 125.689 473.094 128.506 476.553 130.427C480.141 132.219 483.793 133.116 487.508 133.116C491.865 133.116 495.837 132.155 499.424 130.235C503.14 128.314 506.087 125.496 508.265 121.783C510.444 118.069 511.533 113.587 511.533 108.337Z" fill="white"/>
</svg>
